HIERARCHY
ROOT Hips
{
  OFFSET 13.9192 87.0099 7.45665
  CHANNELS 6 Xposition Yposition Zposition Zrotation Xrotation Yrotation
  JOINT RightUpLeg
  {
    OFFSET -9.25892 -1.51126 0.0103963
    CHANNELS 3 Zrotation Xrotation Yrotation
    JOINT RightLeg
    {
      OFFSET -0.0493687 -41.9019 0.103893
      CHANNELS 3 Zrotation Xrotation Yrotation
      JOINT RightFoot
      {
        OFFSET -1.32222 -41.6903 -0.651221
        CHANNELS 3 Zrotation Xrotation Yrotation
        End Site
        {
          OFFSET 0 -7.69 17.5
        }
      }
    }
  }
  JOINT LeftUpLeg
  {
    OFFSET 9.27814 -1.57439 0.0532125
    CHANNELS 3 Zrotation Xrotation Yrotation
    JOINT LeftLeg
    {
      OFFSET 0.0812204 -41.881 0.0464493
      CHANNELS 3 Zrotation Xrotation Yrotation
      JOINT LeftFoot
      {
        OFFSET -0.0110097 -42.3775 0.673629
        CHANNELS 3 Zrotation Xrotation Yrotation
        End Site
        {
          OFFSET 0 -7.69 17.5
        }
      }
    }
  }
  JOINT Spine
  {
    OFFSET 0.0235844 14.3019 0.0112981
    CHANNELS 3 Zrotation Xrotation Yrotation
    JOINT Spine1
    {
      OFFSET 0.0175769 9.71285 0.00895779
      CHANNELS 3 Zrotation Xrotation Yrotation
      JOINT Spine2
      {
        OFFSET 0.0285364 10.1117 0.00103808
        CHANNELS 3 Zrotation Xrotation Yrotation
        JOINT Spine3
        {
          OFFSET 0.0259409 9.72657 0.0104237
          CHANNELS 3 Zrotation Xrotation Yrotation
          JOINT Neck
          {
            OFFSET -0.0111787 10.3773 0.0255796
            CHANNELS 3 Zrotation Xrotation Yrotation
            JOINT Head
            {
              OFFSET -0.00267722 9.48908 0.0510269
              CHANNELS 3 Zrotation Xrotation Yrotation
              End Site
              {
                OFFSET 0 15.95 0
              }
            }
          }
          JOINT RightShoulder
          {
            OFFSET -3.1909 6.94591 0.0199124
            CHANNELS 3 Zrotation Xrotation Yrotation
            JOINT RightArm
            {
              OFFSET -12.7524 0.0197095 0.0110528
              CHANNELS 3 Zrotation Xrotation Yrotation
              JOINT RightForeArm
              {
                OFFSET -26.4891 -0.0606575 0.0254635
                CHANNELS 3 Zrotation Xrotation Yrotation
                JOINT RightHand
                {
                  OFFSET -26.017 -0.0465962 -0.00264686
                  CHANNELS 3 Zrotation Xrotation Yrotation
                  JOINT RightHandThumb1
                  {
                    OFFSET -2.48905 0.190105 3.12053
                    CHANNELS 3 Zrotation Xrotation Yrotation
                    JOINT RightHandThumb2
                    {
                      OFFSET -3.68274 0 0
                      CHANNELS 3 Zrotation Xrotation Yrotation
                      JOINT RightHandThumb3
                      {
                        OFFSET -2.55832 0 0
                        CHANNELS 3 Zrotation Xrotation Yrotation
                        End Site
                        {
                          OFFSET -2.194 0 0
                        }
                      }
                    }
                  }
                  JOINT RightInHandIndex
                  {
                    OFFSET -3.22368 0.508421 1.97842
                    CHANNELS 3 Zrotation Xrotation Yrotation
                    JOINT RightHandIndex1
                    {
                      OFFSET -5.21684 -0.091368 0.999158
                      CHANNELS 3 Zrotation Xrotation Yrotation
                      JOINT RightHandIndex2
                      {
                        OFFSET -3.61937 0 0
                        CHANNELS 3 Zrotation Xrotation Yrotation
                        JOINT RightHandIndex3
                        {
                          OFFSET -2.0521 0 0
                          CHANNELS 3 Zrotation Xrotation Yrotation
                          End Site
                          {
                            OFFSET -1.805 0 0
                          }
                        }
                      }
                    }
                  }
                  JOINT RightInHandMiddle
                  {
                    OFFSET -3.38211 0.517263 0.756737
                    CHANNELS 3 Zrotation Xrotation Yrotation
                    JOINT RightHandMiddle1
                    {
                      OFFSET -5.17411 -0.084 0.313895
                      CHANNELS 3 Zrotation Xrotation Yrotation
                      JOINT RightHandMiddle2
                      {
                        OFFSET -3.94947 0 0
                        CHANNELS 3 Zrotation Xrotation Yrotation
                        JOINT RightHandMiddle3
                        {
                          OFFSET -2.47579 0 0
                          CHANNELS 3 Zrotation Xrotation Yrotation
                          End Site
                          {
                            OFFSET -1.975 0 0
                          }
                        }
                      }
                    }
                  }
                  JOINT RightInHandRing
                  {
                    OFFSET -3.36516 0.537895 -0.128947
                    CHANNELS 3 Zrotation Xrotation Yrotation
                    JOINT RightHandRing1
                    {
                      OFFSET -4.63474 -0.022105 -0.478947
                      CHANNELS 3 Zrotation Xrotation Yrotation
                      JOINT RightHandRing2
                      {
                        OFFSET -3.44238 0 0
                        CHANNELS 3 Zrotation Xrotation Yrotation
                        JOINT RightHandRing3
                        {
                          OFFSET -2.3881 0 0
                          CHANNELS 3 Zrotation Xrotation Yrotation
                          End Site
                          {
                            OFFSET -1.857 0 0
                          }
                        }
                      }
                    }
                  }
                  JOINT RightInHandPinky
                  {
                    OFFSET -3.16105 0.469368 -1.20179
                    CHANNELS 3 Zrotation Xrotation Yrotation
                    JOINT RightHandPinky1
                    {
                      OFFSET -4.14105 -0.022105 -1.09053
                      CHANNELS 3 Zrotation Xrotation Yrotation
                      JOINT RightHandPinky2
                      {
                        OFFSET -2.75653 0 0
                        CHANNELS 3 Zrotation Xrotation Yrotation
                        JOINT RightHandPinky3
                        {
                          OFFSET -1.74189 0 0
                          CHANNELS 3 Zrotation Xrotation Yrotation
                          End Site
                          {
                            OFFSET -1.645 0 0
                          }
                        }
                      }
                    }
                  }
                }
              }
            }
          }
          JOINT LeftShoulder
          {
            OFFSET 3.2161 6.92611 -0.00186679
            CHANNELS 3 Zrotation Xrotation Yrotation
            JOINT LeftArm
            {
              OFFSET 12.7484 -0.0283569 -0.0302446
              CHANNELS 3 Zrotation Xrotation Yrotation
              JOINT LeftForeArm
              {
                OFFSET 26.4766 -0.0880322 -0.0033192
                CHANNELS 3 Zrotation Xrotation Yrotation
                JOINT LeftHand
                {
                  OFFSET 26.0079 -0.0456134 -0.0735001
                  CHANNELS 3 Zrotation Xrotation Yrotation
                  JOINT LeftHandThumb1
                  {
                    OFFSET 2.48905 0.190105 3.12053
                    CHANNELS 3 Zrotation Xrotation Yrotation
                    JOINT LeftHandThumb2
                    {
                      OFFSET 3.68274 0 0
                      CHANNELS 3 Zrotation Xrotation Yrotation
                      JOINT LeftHandThumb3
                      {
                        OFFSET 2.55832 0 0
                        CHANNELS 3 Zrotation Xrotation Yrotation
                        End Site
                        {
                          OFFSET 2.194 0 0
                        }
                      }
                    }
                  }
                  JOINT LeftInHandIndex
                  {
                    OFFSET 3.22368 0.508421 1.97842
                    CHANNELS 3 Zrotation Xrotation Yrotation
                    JOINT LeftHandIndex1
                    {
                      OFFSET 5.21684 -0.091368 0.999158
                      CHANNELS 3 Zrotation Xrotation Yrotation
                      JOINT LeftHandIndex2
                      {
                        OFFSET 3.61937 0 0
                        CHANNELS 3 Zrotation Xrotation Yrotation
                        JOINT LeftHandIndex3
                        {
                          OFFSET 2.0521 0 0
                          CHANNELS 3 Zrotation Xrotation Yrotation
                          End Site
                          {
                            OFFSET 1.805 0 0
                          }
                        }
                      }
                    }
                  }
                  JOINT LeftInHandMiddle
                  {
                    OFFSET 3.38211 0.517263 0.756737
                    CHANNELS 3 Zrotation Xrotation Yrotation
                    JOINT LeftHandMiddle1
                    {
                      OFFSET 5.17411 -0.084 0.313895
                      CHANNELS 3 Zrotation Xrotation Yrotation
                      JOINT LeftHandMiddle2
                      {
                        OFFSET 3.94947 0 0
                        CHANNELS 3 Zrotation Xrotation Yrotation
                        JOINT LeftHandMiddle3
                        {
                          OFFSET 2.47579 0 0
                          CHANNELS 3 Zrotation Xrotation Yrotation
                          End Site
                          {
                            OFFSET 1.975 0 0
                          }
                        }
                      }
                    }
                  }
                  JOINT LeftInHandRing
                  {
                    OFFSET 3.36516 0.537895 -0.128947
                    CHANNELS 3 Zrotation Xrotation Yrotation
                    JOINT LeftHandRing1
                    {
                      OFFSET 4.63474 -0.022105 -0.478947
                      CHANNELS 3 Zrotation Xrotation Yrotation
                      JOINT LeftHandRing2
                      {
                        OFFSET 3.44238 0 0
                        CHANNELS 3 Zrotation Xrotation Yrotation
                        JOINT LeftHandRing3
                        {
                          OFFSET 2.3881 0 0
                          CHANNELS 3 Zrotation Xrotation Yrotation
                          End Site
                          {
                            OFFSET 1.857 0 0
                          }
                        }
                      }
                    }
                  }
                  JOINT LeftInHandPinky
                  {
                    OFFSET 3.16105 0.469368 -1.20179
                    CHANNELS 3 Zrotation Xrotation Yrotation
                    JOINT LeftHandPinky1
                    {
                      OFFSET 4.14105 -0.022105 -1.09053
                      CHANNELS 3 Zrotation Xrotation Yrotation
                      JOINT LeftHandPinky2
                      {
                        OFFSET 2.75653 0 0
                        CHANNELS 3 Zrotation Xrotation Yrotation
                        JOINT LeftHandPinky3
                        {
                          OFFSET 1.74189 0 0
                          CHANNELS 3 Zrotation Xrotation Yrotation
                          End Site
                          {
                            OFFSET 1.645 0 0
                          }
                        }
                      }
                    }
                  }
                }
              }
            }
          }
        }
      }
    }
  }
}
MOTION
Frames:	4
Frame Time:	0.00833333
16.9666 86.0295 7.7997 25.5957 -14.7344 -151.574 44.1058 -52.0335 58.0528 -2.89574 34.9965 -16.1896 7.67742 0.0108342 38.7319 51.0914 -40.8548 39.8676 -4.85398 44.3138 11.3871 -13.384 -11.4554 6.74693 -3.52357 10.9053 -24.1821 -1.28346 2.18567 -6.51615 -1.98476 3.25016 -10.3307 -0.906326 -0.287284 2.45478 -4.26396 -1.47397 26.5762 -15.7463 3.73619 30.6334 4.77088 -2.71145 -7.11411 37.6218 -33.3395 -9.15277 60.1772 -6.23283 131.465 -11.3138 10.1174 -4.83966 28.184 10.7294 19.1592 1.02497e-14 3.18055e-15 -10 -2.10798e-15 6.36111e-15 -10 3.18055e-15 3.18055e-15 7.95139e-16 19.9818 0.871897 2.3964 24 2.38542e-15 -3.18055e-15 20 1.98785e-15 -9.54166e-15 3.18055e-15 3.18055e-15 7.95139e-16 20 -6.36111e-15 -3.18055e-15 24 -6.36111e-15 -4.77083e-15 20 -1.68967e-15 -3.18055e-15 3.18055e-15 3.18055e-15 7.95139e-16 19.9748 -1.02565 -2.81938 24 5.56597e-15 -1.59028e-15 20 -6.36111e-15 -3.18055e-15 3.18055e-15 3.18055e-15 7.95139e-16 19.7815 -3.00948 -8.30515 24 -7.15625e-15 1.59028e-15 20 -7.45443e-16 -6.36111e-15 8.36754 -24.9853 -8.14604 12.3551 37.2938 -139.488 29.922 -9.33661 -32.1585 26.2136 5.92569 22.7664 -28.184 10.7294 -19.1592 4.28361e-15 3.18055e-15 10 -4.35126e-15 6.36111e-15 10 -1.59028e-15 -1.59028e-15 -0 -19.9818 0.871897 -2.3964 -24 3.18055e-15 1.59028e-15 -20 -6.36111e-15 -8.94531e-16 -1.59028e-15 -1.59028e-15 -0 -20 3.18055e-15 3.18055e-15 -24 0 -7.95139e-15 -20 -9.54166e-15 -1.3418e-15 -1.59028e-15 -1.59028e-15 -0 -19.9748 -1.02565 2.81938 -24 0 -3.18055e-15 -20 -3.18055e-15 2.68359e-15 -1.59028e-15 -1.59028e-15 -0 -19.7815 -3.00948 8.30515 -24 3.18055e-15 -6.36111e-15 -20 0 3.18055e-15 
16.9472 86.0341 7.8482 25.6519 -14.7067 -151.376 44.0416 -52.18 57.9873 -2.8337 35.0915 -16.2384 7.69554 -0.0607154 38.6607 51.014 -41.0871 39.8515 -4.70104 44.3248 11.2992 -13.3438 -11.4031 6.67852 -3.44448 10.9204 -23.9911 -1.26104 2.20101 -6.4623 -1.94925 3.2812 -10.2574 -0.906856 -0.275081 2.44784 -4.21664 -1.41293 26.1677 -15.8344 3.84109 30.8018 4.70781 -2.67314 -7.19156 38.9196 -33.0048 -8.64562 59.9052 -6.28515 131.373 -11.7402 10.0259 -4.55932 28.184 10.7294 19.1592 3.79044e-15 3.18055e-15 -10 -6.73965e-15 -1.59028e-15 -10 -0 0 3.18055e-15 19.9818 0.871897 2.3964 24 3.18055e-15 6.36111e-15 20 -4.37326e-15 9.54166e-15 -0 0 3.18055e-15 20 1.59028e-15 7.95139e-15 24 -3.18055e-15 -1.59028e-15 20 -1.2921e-15 -0 -0 0 3.18055e-15 19.9748 -1.02565 -2.81938 24 -7.95139e-16 -0 20 -7.95139e-16 -0 -0 0 3.18055e-15 19.7815 -3.00948 -8.30515 24 7.95139e-16 1.59028e-15 20 2.18663e-15 -0 8.26718 -24.7951 -8.18844 12.3883 37.4532 -139.412 30.082 -9.11058 -32.8463 26.6119 5.97869 23.8669 -28.184 10.7294 -19.1592 1.61481e-15 0 10 3.16198e-15 9.54166e-15 10 -3.18055e-15 0 -1.27222e-14 -19.9818 0.871897 -2.3964 -24 -9.54166e-15 4.77083e-15 -20 -3.18055e-15 1.3418e-15 -3.18055e-15 0 -1.27222e-14 -20 0 9.54166e-15 -24 -3.18055e-15 1.11319e-14 -20 1.59028e-14 -1.93815e-15 -3.18055e-15 0 -1.27222e-14 -19.9748 -1.02565 2.81938 -24 0 3.18055e-15 -20 -1.27222e-14 2.5842e-15 -3.18055e-15 0 -1.27222e-14 -19.7815 -3.00948 8.30515 -24 3.18055e-15 3.18055e-15 -20 -3.18055e-15 -3.18055e-15 
16.9293 86.0391 7.89845 25.7092 -14.685 -151.154 43.9461 -52.3452 57.8953 -2.77045 35.1909 -16.3015 7.72431 -0.141882 38.5954 50.9623 -41.2598 39.6962 -4.77172 44.2683 11.4366 -13.3046 -11.3374 6.59885 -3.36617 10.9439 -23.7746 -1.23867 2.21868 -6.40207 -1.91385 3.31608 -10.1752 -0.907366 -0.264092 2.43785 -4.15799 -1.344 25.5966 -15.9282 3.86877 31.016 4.63844 -2.62005 -7.3123 40.3026 -32.6239 -8.09723 59.612 -6.36208 131.281 -12.1906 9.90592 -4.26414 28.184 10.7294 19.1592 -3.79044e-15 -3.18055e-15 -10 0 0 -10 -1.76556e-31 -3.18055e-15 -3.18055e-15 19.9818 0.871897 2.3964 24 -6.36111e-15 -3.18055e-15 20 1.78906e-15 -1.59028e-14 -1.76556e-31 -3.18055e-15 -3.18055e-15 20 0 -9.54166e-15 24 -6.36111e-15 -1.59028e-14 20 -4.47266e-15 -1.59028e-14 -1.76556e-31 -3.18055e-15 -3.18055e-15 19.9748 -1.02565 -2.81938 24 -8.74653e-15 -4.77083e-15 20 -3.37934e-15 -6.36111e-15 -1.76556e-31 -3.18055e-15 -3.18055e-15 19.7815 -3.00948 -8.30515 24 -1.59028e-15 -7.95139e-15 20 -1.08586e-14 -1.11319e-14 8.15581 -24.6071 -8.26297 12.4063 37.6419 -139.318 30.0264 -8.91728 -32.676 27.2795 5.75668 24.0937 -28.184 10.7294 -19.1592 1.02497e-14 -3.18055e-15 10 -5.83078e-15 -1.27222e-14 10 1.59028e-15 -1.59028e-15 -0 -19.9818 0.871897 -2.3964 -24 9.54166e-15 -4.77083e-15 -20 3.18055e-15 2.65874e-15 1.59028e-15 -1.59028e-15 -0 -20 6.36111e-15 -3.18055e-15 -24 1.27222e-14 -6.36111e-15 -20 0 -3.57812e-15 1.59028e-15 -1.59028e-15 -0 -19.9748 -1.02565 2.81938 -24 6.36111e-15 -7.95139e-15 -20 3.18055e-15 -7.95139e-15 1.59028e-15 -1.59028e-15 -0 -19.7815 -3.00948 8.30515 -24 9.54166e-15 -7.95139e-15 -20 -9.54166e-15 7.95139e-16 
16.9135 86.0458 7.94513 25.7691 -14.6564 -150.906 43.8332 -52.5253 57.7823 -2.68779 35.3007 -16.3734 7.74561 -0.238992 38.5246 50.9024 -41.4404 39.5023 -4.86967 44.1969 11.6097 -13.2675 -11.2606 6.50248 -3.27715 10.9732 -23.5088 -1.21303 2.23959 -6.32835 -1.87332 3.35729 -10.0741 -0.908003 -0.250724 2.42476 -4.08209 -1.26046 24.8654 -16.0435 3.88988 31.2826 4.54056 -2.54463 -7.49933 41.7468 -32.2102 -7.53011 59.3198 -6.46144 131.18 -12.6612 9.75171 -3.94718 28.184 10.7294 19.1592 -1.02497e-14 -3.18055e-15 -10 -9.96927e-15 -1.59028e-15 -10 -8.82781e-32 6.36111e-15 7.95139e-16 19.9818 0.871897 2.3964 24 1.59028e-15 9.54166e-15 20 -1.19271e-15 6.36111e-15 -8.82781e-32 6.36111e-15 7.95139e-16 20 -3.18055e-15 1.43125e-14 24 -1.59028e-15 2.54444e-14 20 2.98177e-15 9.54166e-15 -8.82781e-32 6.36111e-15 7.95139e-16 19.9748 -1.02565 -2.81938 24 7.95139e-15 2.06736e-14 20 3.47873e-15 -0 -8.82781e-32 6.36111e-15 7.95139e-16 19.7815 -3.00948 -8.30515 24 2.38542e-15 1.74931e-14 20 1.09083e-14 4.77083e-15 8.00433 -24.4159 -8.40785 12.4145 37.8539 -139.211 29.961 -8.70026 -32.4592 27.9882 5.4852 24.2766 -28.184 10.7294 -19.1592 4.35126e-15 -6.36111e-15 10 4.91207e-15 -9.54166e-15 10 -4.77083e-15 1.59028e-15 -0 -19.9818 0.871897 -2.3964 -24 -6.36111e-15 3.18055e-15 -20 3.18055e-15 -3.8763e-15 -4.77083e-15 1.59028e-15 -0 -20 0 1.27222e-14 -24 3.18055e-15 -0 -20 3.18055e-15 -4.96962e-15 -4.77083e-15 1.59028e-15 -0 -19.9748 -1.02565 2.81938 -24 -3.18055e-15 4.77083e-15 -20 3.18055e-15 -5.56597e-15 -4.77083e-15 1.59028e-15 -0 -19.7815 -3.00948 8.30515 -24 -3.18055e-15 -6.36111e-15 -20 0 -5.96354e-15 
